<mxfile host="app.diagrams.net" agent="Mozilla/5.0 (Windows NT 10.0; Win64; x64) AppleWebKit/537.36 (KHTML, like Gecko) Chrome/133.0.0.0 Safari/537.36 Edg/133.0.0.0" version="26.0.14">
  <diagram name="第 1 页" id="0ZgfbO6mXoUUSBTq_5yQ">
    <mxGraphModel dx="788" dy="781" grid="1" gridSize="10" guides="1" tooltips="1" connect="1" arrows="1" fold="1" page="1" pageScale="1" pageWidth="827" pageHeight="1169" math="1" shadow="0">
      <root>
        <mxCell id="0" />
        <mxCell id="1" parent="0" />
        <mxCell id="JxFzlPJey09S1McmYJX8-1" style="rounded=0;orthogonalLoop=1;jettySize=auto;html=1;exitX=1;exitY=1;exitDx=0;exitDy=0;entryX=0;entryY=0;entryDx=0;entryDy=0;strokeWidth=2;" edge="1" parent="1" source="JxFzlPJey09S1McmYJX8-2" target="JxFzlPJey09S1McmYJX8-11">
          <mxGeometry relative="1" as="geometry" />
        </mxCell>
        <mxCell id="JxFzlPJey09S1McmYJX8-2" value="&lt;b style=&quot;font-family: &amp;quot;Times New Roman&amp;quot;; font-size: 18px;&quot;&gt;$$v_{2}^{l}$$&lt;/b&gt;" style="ellipse;whiteSpace=wrap;html=1;aspect=fixed;fillColor=#f8cecc;strokeColor=#b85450;strokeWidth=2;align=center;verticalAlign=middle;fontFamily=Helvetica;fontSize=12;" vertex="1" parent="1">
          <mxGeometry x="255.00000000000003" y="670" width="35" height="35" as="geometry" />
        </mxCell>
        <mxCell id="JxFzlPJey09S1McmYJX8-3" style="rounded=0;orthogonalLoop=1;jettySize=auto;html=1;exitX=1;exitY=0.5;exitDx=0;exitDy=0;entryX=0;entryY=0.5;entryDx=0;entryDy=0;strokeColor=default;strokeWidth=2;align=center;verticalAlign=middle;fontFamily=Helvetica;fontSize=11;fontColor=default;labelBackgroundColor=default;endArrow=classic;" edge="1" parent="1" source="JxFzlPJey09S1McmYJX8-4" target="JxFzlPJey09S1McmYJX8-11">
          <mxGeometry relative="1" as="geometry" />
        </mxCell>
        <mxCell id="JxFzlPJey09S1McmYJX8-4" value="&lt;b style=&quot;font-family: &amp;quot;Times New Roman&amp;quot;; font-size: 18px;&quot;&gt;$$v_{3}^{l}$$&lt;/b&gt;" style="ellipse;whiteSpace=wrap;html=1;aspect=fixed;fillColor=#f8cecc;strokeColor=#b85450;strokeWidth=2;align=center;verticalAlign=middle;fontFamily=Helvetica;fontSize=12;" vertex="1" parent="1">
          <mxGeometry x="235.70000000000002" y="750" width="35" height="35" as="geometry" />
        </mxCell>
        <mxCell id="JxFzlPJey09S1McmYJX8-5" style="rounded=0;orthogonalLoop=1;jettySize=auto;html=1;exitX=1;exitY=0;exitDx=0;exitDy=0;entryX=0;entryY=1;entryDx=0;entryDy=0;strokeColor=default;strokeWidth=2;align=center;verticalAlign=middle;fontFamily=Helvetica;fontSize=11;fontColor=default;labelBackgroundColor=default;endArrow=classic;" edge="1" parent="1" source="JxFzlPJey09S1McmYJX8-6" target="JxFzlPJey09S1McmYJX8-11">
          <mxGeometry relative="1" as="geometry" />
        </mxCell>
        <mxCell id="JxFzlPJey09S1McmYJX8-6" value="&lt;b style=&quot;font-family: &amp;quot;Times New Roman&amp;quot;; font-size: 18px;&quot;&gt;$$v_{4}^{l}$$&lt;/b&gt;" style="ellipse;whiteSpace=wrap;html=1;aspect=fixed;fillColor=#f8cecc;strokeColor=#b85450;strokeWidth=2;align=center;verticalAlign=middle;fontFamily=Helvetica;fontSize=12;" vertex="1" parent="1">
          <mxGeometry x="270" y="815" width="35" height="35" as="geometry" />
        </mxCell>
        <mxCell id="JxFzlPJey09S1McmYJX8-7" style="rounded=0;orthogonalLoop=1;jettySize=auto;html=1;exitX=0.5;exitY=0;exitDx=0;exitDy=0;strokeColor=default;strokeWidth=2;align=center;verticalAlign=middle;fontFamily=Helvetica;fontSize=11;fontColor=default;labelBackgroundColor=default;endArrow=classic;" edge="1" parent="1" source="JxFzlPJey09S1McmYJX8-8" target="JxFzlPJey09S1McmYJX8-11">
          <mxGeometry relative="1" as="geometry" />
        </mxCell>
        <mxCell id="JxFzlPJey09S1McmYJX8-8" value="&lt;b style=&quot;font-family: &amp;quot;Times New Roman&amp;quot;; font-size: 18px;&quot;&gt;$$v_{5}^{l}$$&lt;/b&gt;" style="ellipse;whiteSpace=wrap;html=1;aspect=fixed;fillColor=#f8cecc;strokeColor=#b85450;strokeWidth=2;align=center;verticalAlign=middle;fontFamily=Helvetica;fontSize=12;" vertex="1" parent="1">
          <mxGeometry x="346" y="850" width="35" height="35" as="geometry" />
        </mxCell>
        <mxCell id="JxFzlPJey09S1McmYJX8-9" style="rounded=0;orthogonalLoop=1;jettySize=auto;html=1;exitX=0;exitY=0;exitDx=0;exitDy=0;entryX=1;entryY=1;entryDx=0;entryDy=0;strokeColor=default;strokeWidth=2;align=center;verticalAlign=middle;fontFamily=Helvetica;fontSize=11;fontColor=default;labelBackgroundColor=default;endArrow=classic;" edge="1" parent="1" source="JxFzlPJey09S1McmYJX8-10" target="JxFzlPJey09S1McmYJX8-11">
          <mxGeometry relative="1" as="geometry" />
        </mxCell>
        <mxCell id="JxFzlPJey09S1McmYJX8-10" value="&lt;b style=&quot;font-family: &amp;quot;Times New Roman&amp;quot;; font-size: 18px;&quot;&gt;$$v_{6}^{l}$$&lt;/b&gt;" style="ellipse;whiteSpace=wrap;html=1;aspect=fixed;fillColor=#f8cecc;strokeColor=#b85450;strokeWidth=2;align=center;verticalAlign=middle;fontFamily=Helvetica;fontSize=12;" vertex="1" parent="1">
          <mxGeometry x="430" y="815" width="35" height="35" as="geometry" />
        </mxCell>
        <mxCell id="JxFzlPJey09S1McmYJX8-11" value="&lt;font face=&quot;Times New Roman&quot; style=&quot;font-size: 18px;&quot;&gt;&lt;b&gt;$$v_{1}^{l}$$&lt;/b&gt;&lt;/font&gt;" style="ellipse;whiteSpace=wrap;html=1;aspect=fixed;fillColor=#dae8fc;strokeColor=#6c8ebf;strokeWidth=2;align=center;verticalAlign=middle;fontFamily=Helvetica;fontSize=12;" vertex="1" parent="1">
          <mxGeometry x="339.35" y="745" width="35" height="35" as="geometry" />
        </mxCell>
        <mxCell id="JxFzlPJey09S1McmYJX8-13" value="" style="endArrow=classic;html=1;rounded=0;edgeStyle=orthogonalEdgeStyle;curved=1;entryX=1;entryY=0;entryDx=0;entryDy=0;exitX=0.288;exitY=0.029;exitDx=0;exitDy=0;exitPerimeter=0;strokeWidth=2;" edge="1" parent="1" source="JxFzlPJey09S1McmYJX8-11" target="JxFzlPJey09S1McmYJX8-11">
          <mxGeometry width="50" height="50" relative="1" as="geometry">
            <mxPoint x="350" y="730" as="sourcePoint" />
            <mxPoint x="390" y="690" as="targetPoint" />
            <Array as="points">
              <mxPoint x="370" y="720" />
            </Array>
          </mxGeometry>
        </mxCell>
        <mxCell id="JxFzlPJey09S1McmYJX8-19" value="&lt;font face=&quot;Times New Roman&quot;&gt;&lt;span style=&quot;font-size: 18px;&quot;&gt;&lt;b&gt;$$v_{1}^{l+1}$$&lt;/b&gt;&lt;/span&gt;&lt;/font&gt;" style="ellipse;whiteSpace=wrap;html=1;aspect=fixed;fillColor=#dae8fc;strokeColor=#6c8ebf;strokeWidth=2;align=center;verticalAlign=middle;fontFamily=Helvetica;fontSize=12;" vertex="1" parent="1">
          <mxGeometry x="463" y="750" width="35" height="35" as="geometry" />
        </mxCell>
        <mxCell id="JxFzlPJey09S1McmYJX8-14" value="" style="endArrow=none;html=1;rounded=0;" edge="1" parent="1">
          <mxGeometry width="50" height="50" relative="1" as="geometry">
            <mxPoint x="404" y="774" as="sourcePoint" />
            <mxPoint x="406" y="754" as="targetPoint" />
          </mxGeometry>
        </mxCell>
        <mxCell id="JxFzlPJey09S1McmYJX8-20" value="&lt;font style=&quot;font-size: 18px;&quot; face=&quot;Times New Roman&quot;&gt;$$a_{12}$$&lt;/font&gt;" style="text;strokeColor=none;align=center;fillColor=none;html=1;verticalAlign=middle;whiteSpace=wrap;rounded=0;" vertex="1" parent="1">
          <mxGeometry x="299.35" y="700" width="40" height="20" as="geometry" />
        </mxCell>
        <mxCell id="JxFzlPJey09S1McmYJX8-15" value="" style="endArrow=none;html=1;rounded=0;" edge="1" parent="1">
          <mxGeometry width="50" height="50" relative="1" as="geometry">
            <mxPoint x="418" y="773" as="sourcePoint" />
            <mxPoint x="420" y="758" as="targetPoint" />
          </mxGeometry>
        </mxCell>
        <mxCell id="JxFzlPJey09S1McmYJX8-21" value="&lt;font style=&quot;font-size: 18px;&quot; face=&quot;Times New Roman&quot;&gt;$$a_{13}$$&lt;/font&gt;" style="text;strokeColor=none;align=center;fillColor=none;html=1;verticalAlign=middle;whiteSpace=wrap;rounded=0;" vertex="1" parent="1">
          <mxGeometry x="280" y="743" width="40" height="20" as="geometry" />
        </mxCell>
        <mxCell id="JxFzlPJey09S1McmYJX8-16" value="" style="endArrow=none;html=1;rounded=0;" edge="1" parent="1">
          <mxGeometry width="50" height="50" relative="1" as="geometry">
            <mxPoint x="433" y="771" as="sourcePoint" />
            <mxPoint x="434" y="761" as="targetPoint" />
          </mxGeometry>
        </mxCell>
        <mxCell id="JxFzlPJey09S1McmYJX8-22" value="&lt;font style=&quot;font-size: 18px;&quot; face=&quot;Times New Roman&quot;&gt;$$a_{14}$$&lt;/font&gt;" style="text;strokeColor=none;align=center;fillColor=none;html=1;verticalAlign=middle;whiteSpace=wrap;rounded=0;" vertex="1" parent="1">
          <mxGeometry x="280" y="785" width="40" height="20" as="geometry" />
        </mxCell>
        <mxCell id="JxFzlPJey09S1McmYJX8-17" value="" style="endArrow=none;html=1;rounded=0;" edge="1" parent="1">
          <mxGeometry width="50" height="50" relative="1" as="geometry">
            <mxPoint x="445" y="771" as="sourcePoint" />
            <mxPoint x="446" y="764" as="targetPoint" />
          </mxGeometry>
        </mxCell>
        <mxCell id="JxFzlPJey09S1McmYJX8-23" value="&lt;font style=&quot;font-size: 18px;&quot; face=&quot;Times New Roman&quot;&gt;$$a_{15}$$&lt;/font&gt;" style="text;strokeColor=none;align=center;fillColor=none;html=1;verticalAlign=middle;whiteSpace=wrap;rounded=0;" vertex="1" parent="1">
          <mxGeometry x="325" y="805" width="40" height="20" as="geometry" />
        </mxCell>
        <mxCell id="JxFzlPJey09S1McmYJX8-18" value="" style="endArrow=none;html=1;rounded=0;" edge="1" parent="1">
          <mxGeometry width="50" height="50" relative="1" as="geometry">
            <mxPoint x="455" y="771" as="sourcePoint" />
            <mxPoint x="456" y="766" as="targetPoint" />
          </mxGeometry>
        </mxCell>
        <mxCell id="JxFzlPJey09S1McmYJX8-24" value="&lt;font style=&quot;font-size: 18px;&quot; face=&quot;Times New Roman&quot;&gt;$$a_{16}$$&lt;/font&gt;" style="text;strokeColor=none;align=center;fillColor=none;html=1;verticalAlign=middle;whiteSpace=wrap;rounded=0;" vertex="1" parent="1">
          <mxGeometry x="381" y="795" width="40" height="20" as="geometry" />
        </mxCell>
        <mxCell id="JxFzlPJey09S1McmYJX8-29" value="" style="endArrow=none;html=1;rounded=0;" edge="1" parent="1">
          <mxGeometry width="50" height="50" relative="1" as="geometry">
            <mxPoint x="374.35" y="775" as="sourcePoint" />
            <mxPoint x="376.35" y="745" as="targetPoint" />
          </mxGeometry>
        </mxCell>
        <mxCell id="JxFzlPJey09S1McmYJX8-25" value="&lt;font style=&quot;font-size: 18px;&quot; face=&quot;Times New Roman&quot;&gt;$$a_{11}$$&lt;/font&gt;" style="text;strokeColor=none;align=center;fillColor=none;html=1;verticalAlign=middle;whiteSpace=wrap;rounded=0;" vertex="1" parent="1">
          <mxGeometry x="346" y="709" width="40" height="20" as="geometry" />
        </mxCell>
        <mxCell id="JxFzlPJey09S1McmYJX8-27" value="&lt;font style=&quot;font-size: 14px;&quot; face=&quot;Times New Roman&quot;&gt;sum pooling&lt;/font&gt;" style="text;strokeColor=none;align=center;fillColor=none;html=1;verticalAlign=middle;whiteSpace=wrap;rounded=0;rotation=15;" vertex="1" parent="1">
          <mxGeometry x="381" y="737" width="82" height="20" as="geometry" />
        </mxCell>
        <mxCell id="JxFzlPJey09S1McmYJX8-12" value="" style="endArrow=none;html=1;rounded=0;" edge="1" parent="1">
          <mxGeometry width="50" height="50" relative="1" as="geometry">
            <mxPoint x="389" y="775" as="sourcePoint" />
            <mxPoint x="391" y="750" as="targetPoint" />
          </mxGeometry>
        </mxCell>
      </root>
    </mxGraphModel>
  </diagram>
</mxfile>
